<?xml version="1.0" standalone="no"?>
<!DOCTYPE svg PUBLIC "-//W3C//DTD SVG 20010904//EN"
 "http://www.w3.org/TR/2001/REC-SVG-20010904/DTD/svg10.dtd">
<svg version="1.0" xmlns="http://www.w3.org/2000/svg"
 width="48.000000pt" height="48.000000pt" viewBox="0 0 48.000000 48.000000"
 preserveAspectRatio="xMidYMid meet">

<g transform="translate(0.000000,48.000000) scale(0.100000,-0.100000)"
fill="#000000" stroke="none">
<path d="M77 392 l-47 -48 50 -49 50 -49 -52 -53 -53 -53 48 -47 47 -47 48 47
c26 26 53 47 59 47 6 0 30 -21 53 -46 l42 -46 46 46 46 46 -49 50 -49 50 52
53 52 53 -48 47 -48 47 -49 -50 -49 -50 -51 50 -51 50 -47 -48z"/>
</g>
</svg>
